<svg xmlns="http://www.w3.org/2000/svg" width="54" height="54" fill="none">
  <g clip-path="url(#a)">
    <rect width="54" height="54" fill="#F03E3D" rx="19"/>
    <path fill="#fff" d="M32.571 20.429h.858c.16 0 .285-.125.285-.286v-.572a.282.282 0 0 0-.285-.285H20.286a.282.282 0 0 0-.286.285v.572c0 .16.125.286.286.286h.857c0 3.303 1.58 5.696 3.33 6.857-1.75 1.16-3.33 3.553-3.33 6.857h-.857a.282.282 0 0 0-.286.286V35c0 .16.125.286.286.286h13.143c.16 0 .285-.125.285-.286v-.571a.282.282 0 0 0-.285-.286h-.858c0-3.304-1.58-5.697-3.33-6.857 1.75-1.161 3.33-3.554 3.33-6.857Zm-1.142 0a7.914 7.914 0 0 1-.76 3.428h-7.624a7.916 7.916 0 0 1-.76-3.428h9.144Zm-.51 10.857h-8.124c.66-1.724 1.848-2.947 3.035-3.429h2.054c1.187.482 2.375 1.706 3.036 3.429Z"/>
  </g>
  <defs>
    <clipPath id="a">
      <path fill="#fff" d="M0 0h54v54H0z"/>
    </clipPath>
  </defs>
</svg>
